HIERARCHY
ROOT Hips
{
	OFFSET 50.866501 -15.887416 96.886299
	CHANNELS 6 Xposition Yposition Zposition Xrotation Yrotation Zrotation
	JOINT spine
	{
		OFFSET 0.000000 -0.458068 7.965683
		CHANNELS 3 Xrotation Yrotation Zrotation
		JOINT spine1
		{
			OFFSET 0.000000 -0.000002 10.243103
			CHANNELS 3 Xrotation Yrotation Zrotation
			JOINT spine2
			{
				OFFSET 0.000000 -0.000002 9.814751
				CHANNELS 3 Xrotation Yrotation Zrotation
				JOINT Neck
				{
					OFFSET 0.000000 -1.201384 25.198593
					CHANNELS 3 Xrotation Yrotation Zrotation
					JOINT Head
					{
						OFFSET 0.000000 0.000000 7.613144
						CHANNELS 3 Xrotation Yrotation Zrotation
						End Site
						{
							OFFSET 0.000000 6.077326 18.428101
						}
					}
				}
				JOINT RightShoulder
				{
					OFFSET -4.132698 0.575450 10.599197
					CHANNELS 3 Xrotation Yrotation Zrotation
					JOINT RightArm
					{
						OFFSET 0.000000 -0.000003 13.901794
						CHANNELS 3 Xrotation Yrotation Zrotation
						JOINT RightArmRoll
						{
							OFFSET 0.000000 -0.000001 7.017883
							CHANNELS 3 Xrotation Yrotation Zrotation
							JOINT RightForeArm
							{
								OFFSET 0.000000 -0.000003 20.440598
								CHANNELS 3 Xrotation Yrotation Zrotation
								JOINT RightForeArmRoll
								{
									OFFSET 0.000000 -0.000002 7.875168
									CHANNELS 3 Xrotation Yrotation Zrotation
									JOINT RightHand
									{
										OFFSET 0.000000 -0.000002 15.803696
										CHANNELS 3 Xrotation Yrotation Zrotation
										End Site
										{
											OFFSET 0.000000 0.000000 0.100006
										}
									}
								}
							}
						}
					}
				}
				JOINT LeftShoulder
				{
					OFFSET 4.132698 0.575450 10.599197
					CHANNELS 3 Xrotation Yrotation Zrotation
					JOINT LeftArm
					{
						OFFSET 0.000000 -0.000003 13.901794
						CHANNELS 3 Xrotation Yrotation Zrotation
						JOINT LeftArmRoll
						{
							OFFSET 0.000000 -0.000001 7.017883
							CHANNELS 3 Xrotation Yrotation Zrotation
							JOINT LeftForeArm
							{
								OFFSET 0.000000 -0.000003 20.440598
								CHANNELS 3 Xrotation Yrotation Zrotation
								JOINT LeftForeArmRoll
								{
									OFFSET 0.000000 -0.000002 7.875168
									CHANNELS 3 Xrotation Yrotation Zrotation
									JOINT LeftHand
									{
										OFFSET 0.000000 -0.000002 15.803696
										CHANNELS 3 Xrotation Yrotation Zrotation
										End Site
										{
											OFFSET 0.000000 0.000000 0.100006
										}
									}
								}
							}
						}
					}
				}
			}
		}
	}
	JOINT RightUpLeg
	{
		OFFSET -7.060478 1.086101 -1.294701
		CHANNELS 3 Xrotation Yrotation Zrotation
		JOINT RightUpLegRoll
		{
			OFFSET 0.000000 -0.000003 18.530800
			CHANNELS 3 Xrotation Yrotation Zrotation
			JOINT RightLeg
			{
				OFFSET 0.000000 0.000003 -22.947601
				CHANNELS 3 Xrotation Yrotation Zrotation
				JOINT RightLegRoll
				{
					OFFSET 0.000000 -0.000004 23.022598
					CHANNELS 3 Xrotation Yrotation Zrotation
					JOINT RightFoot
					{
						OFFSET 0.000000 -0.000003 19.162498
						CHANNELS 3 Xrotation Yrotation Zrotation
						JOINT RightToeBase
						{
							OFFSET 0.000000 -0.000003 16.018799
							CHANNELS 3 Xrotation Yrotation Zrotation
							End Site
							{
								OFFSET 0.006790 0.894205 7.757812
							}
						}
					}
				}
			}
		}
	}
	JOINT LeftUpLeg
	{
		OFFSET 7.060478 1.086101 -1.294701
		CHANNELS 3 Xrotation Yrotation Zrotation
		JOINT LeftUpLegRoll
		{
			OFFSET 0.000000 -0.000003 18.530899
			CHANNELS 3 Xrotation Yrotation Zrotation
			JOINT LeftLeg
			{
				OFFSET 0.000000 -0.000004 22.947495
				CHANNELS 3 Xrotation Yrotation Zrotation
				JOINT LeftLegRoll
				{
					OFFSET 0.000000 -0.000004 23.235504
					CHANNELS 3 Xrotation Yrotation Zrotation
					JOINT LeftFoot
					{
						OFFSET 0.000000 -0.000004 18.949600
						CHANNELS 3 Xrotation Yrotation Zrotation
						JOINT LeftToeBase
						{
							OFFSET 0.000000 -0.000002 16.018799
							CHANNELS 3 Xrotation Yrotation Zrotation
							End Site
							{
								OFFSET -0.030430 0.894205 7.757812
							}
						}
					}
				}
			}
		}
	}
}
MOTION
Frames: 12
Frame Time: 0.041667
52.758701 -16.081017 96.888306 -7.680017 -2.187083 0.577641 -0.857110 -0.048812 -0.344561 2.288414 -0.089111 -0.680807 3.933436 -0.097342 -0.679758 27.785221 -2.237760 2.479224 11.286872 6.569237 0.981622 -13.279442 -16.491195 -13.480986 -154.018662 -169.767917 -92.995198 0.000004 0.000015 -0.000001 81.854339 0.818579 3.916230 0.000006 0.000003 -3.013241 -5.000156 -7.999947 0.000008 -5.722576 24.789753 2.939429 -136.978938 175.274853 67.462127 -0.000000 -0.000005 0.000001 89.879737 -3.562866 -7.730352 0.000002 0.000006 3.001473 -5.000182 8.000090 0.000004 8.083665 -170.258871 8.590634 -179.999991 0.000005 -1.302007 173.466929 -1.773412 -0.527064 -0.000004 -0.000003 0.098306 69.397625 6.929240 2.007491 25.456952 -7.355615 0.000002 8.070359 176.550404 -1.459981 -0.000020 -0.000004 -1.300659 -4.675269 1.747280 0.153528 0.000002 -0.000000 -0.049125 68.744864 -6.941149 -2.019297 25.456955 7.355622 -0.000004 
52.763500 -16.073418 96.886497 -7.676708 -2.203502 0.580113 -0.859689 -0.048682 -0.343332 2.283254 -0.089351 -0.678675 3.928275 -0.097558 -0.677623 27.797806 -2.409564 2.482898 11.328297 6.592833 0.962583 -13.275711 -16.436200 -13.470833 -153.961398 -169.835891 -93.020251 0.000004 0.000015 -0.000000 81.835946 0.835478 3.899475 0.000002 0.000003 -3.013240 -5.000151 -7.999951 0.000008 -5.698805 24.856151 2.914882 -136.984949 175.141978 67.710254 0.000001 -0.000003 0.000001 89.809720 -3.603881 -7.664489 -0.000000 0.000007 3.001484 -5.000183 8.000089 0.000001 8.069111 -170.236728 8.601355 -179.999991 0.000006 -1.302006 173.450892 -1.774346 -0.527674 -0.000003 -0.000003 0.098482 69.405821 6.929036 2.007441 25.456952 -7.355613 0.000001 8.063541 176.570171 -1.446517 -0.000020 -0.000003 -1.300340 -4.675454 1.749373 0.153429 0.000003 -0.000000 -0.049144 68.745103 -6.941236 -2.019498 25.456957 7.355621 -0.000003 
52.768501 -16.078915 96.873497 -7.674903 -2.219855 0.581595 -0.861961 -0.049006 -0.342344 2.278703 -0.090591 -0.677110 3.923735 -0.098779 -0.676044 27.804175 -2.573858 2.487251 11.376498 6.617632 0.944623 -13.269241 -16.377662 -13.456126 -153.901866 -169.893060 -93.050590 0.000002 0.000016 -0.000000 81.796857 0.857163 3.877947 0.000005 0.000003 -3.013240 -5.000151 -7.999950 0.000006 -5.677287 24.932731 2.895036 -136.986902 175.012218 67.951722 0.000002 0.000003 0.000000 89.719951 -3.650090 -7.592932 0.000001 0.000006 3.001489 -5.000188 8.000090 0.000004 8.055660 -170.213628 8.613009 -179.999991 0.000004 -1.300996 173.434212 -1.776281 -0.528420 -0.000004 -0.000003 0.098652 69.414113 6.928836 2.007387 25.456952 -7.355614 0.000001 8.058384 176.588927 -1.433171 -0.000020 -0.000004 -1.300050 -4.675929 1.751175 0.153329 0.000002 -0.000000 -0.049163 68.745239 -6.941314 -2.019606 25.456955 7.355621 -0.000005 
52.776699 -16.064417 96.878098 -7.674385 -2.236052 0.582187 -0.863944 -0.049715 -0.341577 2.274733 -0.092670 -0.676052 3.919766 -0.100846 -0.674959 27.804428 -2.731625 2.492133 11.430375 6.643416 0.927570 -13.260557 -16.317016 -13.437817 -153.840203 -169.939970 -93.085377 0.000002 0.000016 -0.000000 81.738745 0.883141 3.852131 0.000005 0.000003 -3.013240 -5.000152 -7.999951 0.000008 -5.657993 25.017897 2.879638 -136.985851 174.884521 68.184679 0.000002 -0.000001 0.000002 89.611133 -3.701250 -7.516064 -0.000000 0.000006 3.001499 -5.000188 8.000087 0.000001 8.043157 -170.190542 8.625288 -179.999991 0.000005 -1.300995 173.417110 -1.779193 -0.529293 -0.000004 -0.000003 0.098815 69.422507 6.928637 2.007327 25.456948 -7.355612 0.000001 8.054620 176.608707 -1.419733 -0.000020 -0.000004 -1.299770 -4.676682 1.752709 0.153231 0.000002 -0.000000 -0.049181 68.745171 -6.941454 -2.019735 25.456957 7.355621 -0.000004 
52.772800 -16.072514 96.868301 -7.674964 -2.251955 0.581991 -0.865658 -0.050736 -0.341009 2.271304 -0.095426 -0.675439 3.916326 -0.103595 -0.674313 27.798846 -2.883831 2.497368 11.489008 6.669957 0.911226 -13.250405 -16.255977 -13.417015 -153.776368 -169.977181 -93.123742 0.000003 0.000015 0.000000 81.663381 0.912888 3.822583 0.000005 0.000001 -3.013241 -5.000151 -7.999949 0.000007 -5.640935 25.110355 2.868484 -136.982394 174.757903 68.410266 0.000003 -0.000002 0.000001 89.484002 -3.756871 -7.434031 0.000001 0.000006 3.001511 -5.000187 8.000090 0.000004 8.031475 -170.168453 8.637853 -179.999991 0.000006 -1.299999 173.399734 -1.781126 -0.530064 -0.000004 -0.000003 0.098972 69.431011 6.928409 2.007253 25.456950 -7.355618 0.000001 8.051979 176.628501 -1.406426 -0.000020 -0.000004 -1.299530 -4.677706 1.754012 0.153141 0.000002 -0.000001 -0.049201 68.744993 -6.941549 -2.019865 25.456957 7.355620 -0.000004 
52.778301 -16.063217 96.869606 -7.676407 -2.267478 0.581105 -0.867119 -0.052000 -0.340616 2.268375 -0.098699 -0.675210 3.913397 -0.106863 -0.674044 27.787639 -3.031447 2.502809 11.551088 6.697023 0.895439 -13.239214 -16.196264 -13.394744 -153.710416 -170.005143 -93.164689 0.000002 0.000016 0.000001 81.572335 0.945927 3.789747 0.000003 0.000001 -3.013239 -5.000151 -7.999949 0.000006 -5.626105 25.208717 2.861360 -136.977381 174.631367 68.625697 -0.000001 0.000000 -0.000000 89.339270 -3.816706 -7.347311 0.000004 0.000006 3.001511 -5.000187 8.000089 0.000003 8.020527 -170.145422 8.650837 -179.999991 0.000005 -1.299998 173.382262 -1.784033 -0.530952 -0.000004 -0.000003 0.099126 69.439309 6.928242 2.007204 25.456955 -7.355614 0.000001 8.050234 176.648295 -1.393333 -0.000020 -0.000003 -1.299300 -4.679009 1.755116 0.153064 0.000001 -0.000000 -0.049220 68.744713 -6.941673 -2.020005 25.456955 7.355622 -0.000004 
52.784199 -16.066418 96.873810 -7.678517 -2.282481 0.579631 -0.868347 -0.053436 -0.340379 2.265905 -0.102327 -0.675305 3.910937 -0.110492 -0.674093 27.771114 -3.175461 2.508316 11.615609 6.724396 0.880039 -13.227612 -16.139314 -13.371980 -153.642401 -170.024527 -93.207289 0.000002 0.000016 0.000000 81.467477 0.981730 3.754147 0.000004 0.000001 -3.013240 -5.000150 -7.999950 0.000005 -5.613512 25.311682 2.858061 -136.971712 174.503888 68.831184 0.000002 0.000001 -0.000003 89.177634 -3.880449 -7.256261 -0.000000 0.000008 3.001519 -5.000186 8.000090 0.000004 8.010152 -170.123360 8.663752 -179.999991 0.000005 -1.299999 173.364845 -1.786958 -0.530830 -0.000004 -0.000003 0.099275 69.447615 6.928068 2.006952 25.456947 -7.355617 0.000001 8.049095 176.667091 -1.380670 -0.000020 -0.000004 -1.299090 -4.680593 1.756048 0.153004 0.000002 -0.000000 -0.049240 68.744338 -6.941793 -2.020051 25.456959 7.355622 -0.000004 
52.787201 -16.060318 96.870804 -7.681086 -2.296867 0.577670 -0.869358 -0.054973 -0.340275 2.263874 -0.106149 -0.675662 3.908897 -0.114317 -0.674403 27.749580 -3.316828 2.513740 11.681441 6.751840 0.864846 -13.216028 -16.086955 -13.349764 -153.572241 -170.035702 -93.250688 0.000003 0.000015 -0.000001 81.350463 1.019799 3.716415 0.000005 0.000000 -3.013238 -5.000156 -7.999950 0.000007 -5.603136 25.417854 2.858376 -136.966207 174.374525 69.024963 0.000002 0.000001 -0.000001 88.999851 -3.947658 -7.160878 -0.000001 0.000009 3.001530 -5.000183 8.000087 0.000006 8.000251 -170.101340 8.676569 -179.999991 0.000005 -1.299997 173.347660 -1.790869 -0.531829 -0.000003 -0.000002 0.099421 69.455709 6.927886 2.006815 25.456952 -7.355613 0.000001 8.048328 176.684904 -1.368520 -0.000020 -0.000004 -1.298900 -4.682446 1.756861 0.152969 0.000002 -0.000000 -0.049260 68.743839 -6.941905 -2.020205 25.456957 7.355622 -0.000004 
52.792000 -16.047419 96.870903 -7.683904 -2.310518 0.575325 -0.870175 -0.056539 -0.340282 2.262225 -0.110005 -0.676220 3.907258 -0.118179 -0.674913 27.723159 -3.456522 2.518926 11.747688 6.779138 0.849684 -13.205288 -16.040698 -13.329169 -153.500114 -170.039376 -93.293923 0.000002 0.000016 -0.000000 81.223039 1.059605 3.676830 0.000005 0.000003 -3.013240 -5.000154 -7.999951 0.000008 -5.594997 25.525838 2.862103 -136.961480 174.242319 69.206304 0.000004 -0.000001 -0.000000 88.806564 -4.018091 -7.061775 0.000001 0.000006 3.001539 -5.000186 8.000086 0.000004 7.990673 -170.081286 8.688831 -179.999991 0.000005 -1.299002 173.330926 -1.793793 -0.532701 -0.000003 -0.000003 0.099565 69.463488 6.927723 2.006597 25.456952 -7.355614 0.000001 8.047640 176.702731 -1.356822 -0.000020 -0.000004 -1.298720 -4.684580 1.757583 0.152963 0.000002 -0.000000 -0.049280 68.743238 -6.942009 -2.020262 25.456957 7.355621 -0.000002 
52.794102 -16.046215 96.869904 -7.686769 -2.323327 0.572694 -0.870809 -0.058065 -0.340379 2.260945 -0.113735 -0.676919 3.905968 -0.121914 -0.675565 27.692071 -3.595532 2.523744 11.813035 6.806060 0.834402 -13.195715 -16.002286 -13.311149 -153.425829 -170.036057 -93.335956 0.000003 0.000015 -0.000002 81.086756 1.100660 3.636149 0.000003 0.000000 -3.013238 -5.000154 -7.999953 0.000007 -5.589077 25.634146 2.869024 -136.958516 174.106317 69.374525 0.000002 -0.000001 -0.000000 88.598584 -4.091211 -6.959053 0.000002 0.000008 3.001548 -5.000186 8.000088 0.000003 7.981328 -170.061260 8.700637 -179.999991 0.000005 -1.299001 173.314793 -1.796706 -0.533554 -0.000004 -0.000003 0.099706 69.470844 6.927574 2.006411 25.456952 -7.355613 0.000003 8.046814 176.718564 -1.345939 -0.000020 -0.000004 -1.298560 -4.686982 1.758235 0.152989 0.000002 -0.000000 -0.049299 68.742548 -6.942146 -2.020230 25.456952 7.355622 -0.000004 
52.795502 -16.041517 96.876511 -7.689464 -2.335175 0.569882 -0.871289 -0.059479 -0.340545 2.259975 -0.117176 -0.677697 3.905000 -0.125362 -0.676300 27.656848 -3.734805 2.528063 11.876559 6.832380 0.818844 -13.188028 -15.973234 -13.296760 -153.349563 -170.026262 -93.375974 0.000002 0.000015 -0.000001 80.943479 1.142414 3.594662 0.000000 0.000002 -3.013240 -5.000157 -7.999950 0.000007 -5.585373 25.741463 2.878942 -136.958011 173.965560 69.528915 -0.000001 -0.000001 -0.000000 88.376514 -4.166919 -6.853271 0.000001 0.000006 3.001561 -5.000186 8.000090 0.000001 7.972039 -170.043187 8.711533 -179.999991 0.000005 -1.299001 173.299412 -1.799634 -0.533390 -0.000004 -0.000003 0.099847 69.477900 6.927449 2.006147 25.456952 -7.355615 0.000001 8.045541 176.734382 -1.335671 -0.000020 -0.000005 -1.298420 -4.689654 1.758866 0.153055 0.000002 -0.000000 -0.049320 68.741756 -6.942309 -2.020111 25.456957 7.355621 -0.000005 
52.800800 -16.035822 96.874405 -7.691785 -2.345955 0.566989 -0.871621 -0.060711 -0.340756 2.259294 -0.120167 -0.678492 3.904320 -0.128361 -0.677057 27.617417 -3.875331 2.531721 11.937145 6.857872 0.802833 -13.182761 -15.955278 -13.287018 -153.271125 -170.010676 -93.412802 0.000002 0.000015 -0.000002 80.794916 1.184315 3.552966 0.000003 0.000002 -3.013241 -5.000151 -7.999951 0.000008 -5.583891 25.846517 2.891662 -136.960770 173.819148 69.667834 -0.000001 -0.000001 0.000001 88.141098 -4.244789 -6.744494 -0.000002 0.000007 3.001570 -5.000187 8.000090 0.000006 7.962732 -170.026126 8.721463 -179.999991 0.000006 -1.299001 173.285000 -1.802552 -0.534191 -0.000004 -0.000003 0.099988 69.484416 6.927336 2.005920 25.456953 -7.355614 0.000002 8.043600 176.748234 -1.326380 -0.000020 -0.000004 -1.298290 -4.692598 1.759496 0.153163 0.000002 0.000000 -0.049340 68.740854 -6.942469 -2.019997 25.456957 7.355621 -0.000004 
